<?xml version="1.0" encoding="utf-8"?>
<!-- Generator: Adobe Illustrator 27.6.1, SVG Export Plug-In . SVG Version: 6.00 Build 0)  -->
<svg version="1.1" id="Capa_1" xmlns="http://www.w3.org/2000/svg" xmlns:xlink="http://www.w3.org/1999/xlink" x="0px" y="0px"
	 viewBox="0 0 153.1 172.3" style="enable-background:new 0 0 153.1 172.3;" xml:space="preserve">
<style type="text/css">
	.st0{fill:#F59B4C;}
	.st1{fill:#1D1D1B;}
</style>
<g>
	<g>
		<path class="st0" d="M69.9,62.3L19.3,94.6c-3.3,2.1-3.7,6.6-1.1,9.4l62.4,62.8c6.2,6.4,16.2,7.3,23.5,2.3l41.2-27.9
			c3.2-2.1,3.6-6.6,0.9-9.3l-69-68.8C75.5,61.1,72.3,60.7,69.9,62.3z"/>
	</g>
	<g>
		<path class="st1" d="M91.1,164.4c-4.5,0-7.6-2.1-9-4.1l-58.2-57.8c-1.5-1.5-1.5-3.9,0-5.3c1.5-1.5,3.9-1.5,5.3,0l58.3,58.1
			c0.3,0.3,0.3,0.3,0.4,0.5c0.3,0.3,2.8,3.2,9.4-1.1l46.4-30.8c1.1-0.7,1.7-1.7,1.7-3.1c0.1-1.2-0.3-2.4-1.2-3.3L78.9,52.4
			c-2.1-2.3-5.6-2.7-8.1-0.9L19.3,84.1c0,0-0.1,0-0.1,0.1c-3.6,2.1-8,2.4-11.6,0.9c-2.8-1.2-4.9-3.2-6.2-6
			c-2.3-4.7-1.6-10.5,1.9-14.7L50.1,4.6c0.1-0.1,0.3-0.3,0.4-0.4C53.4,1.3,63.1-4,72.4,5.1l68.7,68.7c1.5,1.5,1.5,3.9,0,5.3
			c-1.5,1.5-3.9,1.5-5.3,0L67.1,10.6c-5.4-5.4-10.2-2-11.2-1.1L9,69c-1.6,2-2,4.7-0.9,6.8c0.5,1.1,1.3,1.9,2.4,2.3
			c1.5,0.7,3.3,0.4,4.8-0.4l51.6-32.6c5.6-3.5,12.9-2.7,17.5,2l65.4,65.1c2.5,2.5,3.6,6,3.3,9.4c-0.3,3.5-2.3,6.5-5,8.5L101.5,161
			C97.5,163.5,94.1,164.4,91.1,164.4z"/>
	</g>
</g>
</svg>
