<?xml version="1.0" encoding="utf-8"?>
<!-- Generator: Adobe Illustrator 27.6.1, SVG Export Plug-In . SVG Version: 6.00 Build 0)  -->
<svg version="1.1" id="Capa_1" xmlns="http://www.w3.org/2000/svg" xmlns:xlink="http://www.w3.org/1999/xlink" x="0px" y="0px"
	 viewBox="0 0 293.6 129.7" style="enable-background:new 0 0 293.6 129.7;" xml:space="preserve">
<style type="text/css">
	.st0{fill:#F59B4C;}
	.st1{fill:#FFFFFF;}
</style>
<g>
	<path class="st0" d="M52.6,46.9l-38,24.3c-2.5,1.6-2.8,5-0.8,7.1l47,47.3c4.7,4.8,12.2,5.5,17.7,1.7l31-21c2.4-1.6,2.7-5,0.7-7
		l-52-51.8C56.8,46,54.4,45.7,52.6,46.9z"/>
</g>
<g>
	<path class="st1" d="M68.6,123.8c-3.4,0-5.7-1.6-6.8-3.1L18.1,77.2c-1.1-1.1-1.1-2.9,0-4s2.9-1.1,4,0L66,116.9
		c0.2,0.2,0.2,0.2,0.3,0.4c0.2,0.2,2.1,2.4,7.1-0.8l34.9-23.2c0.8-0.5,1.3-1.3,1.3-2.3c0.1-0.9-0.2-1.8-0.9-2.5l-49.2-49
		c-1.6-1.7-4.2-2-6.1-0.7L14.5,63.3c0,0-0.1,0-0.1,0.1c-2.7,1.6-6,1.8-8.7,0.7C3.6,63.2,2,61.6,1,59.6c-1.7-3.5-1.2-7.9,1.4-11.1
		l35.4-45c0.1-0.1,0.2-0.2,0.3-0.3C40.3,1,47.6-3,54.6,3.9l51.7,51.7c1.1,1.1,1.1,2.9,0,4s-2.9,1.1-4,0L50.5,8
		c-4.1-4.1-7.7-1.5-8.4-0.8L6.8,52c-1.2,1.5-1.5,3.5-0.7,5.1c0.4,0.8,1,1.4,1.8,1.7c1.1,0.5,2.5,0.3,3.6-0.3L50.3,34
		c4.2-2.6,9.7-2,13.2,1.5l49.2,49c1.9,1.9,2.7,4.5,2.5,7.1c-0.3,2.6-1.7,4.9-3.8,6.4l-35,23.2C73.4,123.1,70.8,123.8,68.6,123.8z"/>
</g>
<path class="st1" d="M169.7,34.6c1.7-1,3.1-2.4,4-4c1.1-2,1.7-4.2,1.7-6.4c0-2-0.4-3.9-1.3-5.7c-0.9-1.8-2.1-3.4-3.7-4.5
	c-1.6-1.2-3.6-1.8-5.8-1.8h-24.8v46.4h22.5c2.7,0,5.2-0.5,7.5-1.4s4.2-2.3,5.6-4.1c1.4-1.8,2.1-4.1,2.1-6.7c0-3.1-0.8-5.7-2.4-7.8
	C173.7,36.8,171.9,35.5,169.7,34.6z M149.6,20.6h11.7c0.8,0,1.6,0.2,2.3,0.7c0.7,0.4,1.2,1,1.6,1.8s0.6,1.7,0.6,2.8
	c0,1.1-0.2,2-0.7,2.8c-0.4,0.8-1,1.4-1.8,1.8c-0.7,0.4-1.5,0.6-2.4,0.6h-11.3L149.6,20.6L149.6,20.6z M166.8,47.3
	c-0.5,0.8-1.1,1.5-1.9,2c-0.8,0.5-1.7,0.7-2.7,0.7h-12.6V39h13.1c0.9,0,1.7,0.2,2.4,0.7s1.3,1.2,1.7,2s0.6,1.8,0.6,2.9
	C167.5,45.6,167.3,46.5,166.8,47.3z"/>
<path class="st1" d="M216.6,41.5c0-2.4-0.4-4.7-1.2-6.8s-2.1-4-3.6-5.6c-1.6-1.6-3.5-2.9-5.7-3.8s-4.8-1.4-7.6-1.4
	c-2.7,0-5.3,0.5-7.5,1.4s-4.1,2.2-5.7,3.8c-1.6,1.6-2.8,3.5-3.6,5.6c-0.8,2.1-1.2,4.4-1.2,6.8c0,2.3,0.4,4.6,1.2,6.7
	c0.8,2.1,2,4,3.6,5.6s3.5,3,5.7,3.9c2.2,1,4.7,1.4,7.5,1.4s5.3-0.5,7.5-1.4c2.2-1,4.1-2.3,5.7-3.9c1.6-1.6,2.8-3.5,3.6-5.6
	C216.2,46.1,216.6,43.8,216.6,41.5z M205.6,46.3c-0.7,1.4-1.8,2.5-3,3.3s-2.6,1.2-4.1,1.2s-2.9-0.4-4.2-1.2s-2.3-1.9-3-3.3
	c-0.7-1.4-1.1-3.1-1.1-4.9c0-1.8,0.4-3.5,1.1-4.9c0.7-1.4,1.7-2.5,3-3.3c1.2-0.8,2.6-1.2,4.1-1.2c1.6,0,3,0.4,4.2,1.2s2.3,1.9,3,3.3
	c0.7,1.4,1.1,3,1.1,4.8C206.8,43.3,206.4,44.9,205.6,46.3z"/>
<path class="st1" d="M255.4,41.5c0-2.4-0.4-4.7-1.2-6.8s-2.1-4-3.6-5.6c-1.6-1.6-3.5-2.9-5.7-3.8s-4.8-1.4-7.6-1.4
	c-2.7,0-5.3,0.5-7.5,1.4s-4.1,2.2-5.7,3.8c-1.6,1.6-2.8,3.5-3.6,5.6c-0.8,2.1-1.2,4.4-1.2,6.8c0,2.3,0.4,4.6,1.2,6.7
	c0.8,2.1,2,4,3.6,5.6s3.5,3,5.7,3.9c2.2,1,4.7,1.4,7.5,1.4s5.3-0.5,7.5-1.4c2.2-1,4.1-2.3,5.7-3.9c1.6-1.6,2.8-3.5,3.6-5.6
	C254.9,46.1,255.4,43.8,255.4,41.5z M244.4,46.3c-0.7,1.4-1.8,2.5-3,3.3s-2.6,1.2-4.1,1.2s-2.9-0.4-4.2-1.2s-2.3-1.9-3-3.3
	c-0.7-1.4-1.1-3.1-1.1-4.9c0-1.8,0.4-3.5,1.1-4.9c0.7-1.4,1.7-2.5,3-3.3c1.2-0.8,2.6-1.2,4.1-1.2c1.6,0,3,0.4,4.2,1.2s2.3,1.9,3,3.3
	c0.7,1.4,1.1,3,1.1,4.8C245.5,43.3,245.2,44.9,244.4,46.3z"/>
<polygon class="st1" points="292.8,24.3 282.4,24.3 269.6,38.4 269.6,10.8 260.1,10.8 260.1,58.5 269.6,58.5 269.6,48.3 273.6,44.4 
	283.2,58.5 293.6,58.5 279.9,38.9 "/>
<path class="st1" d="M165.1,92.3c-2.4-0.9-5.2-1.8-8.5-2.4c-2.9-0.7-5.3-1.3-7.1-2c-1.8-0.6-3.1-1.4-3.9-2.3
	c-0.8-0.9-1.2-2.2-1.2-3.9c0-2.5,0.9-4.4,2.6-5.8c1.8-1.4,4.6-2.2,8.4-2.2c1.3,0,2.6,0.1,3.8,0.4c1.2,0.2,2.3,0.6,3.3,1
	s2,0.9,2.8,1.5c0.8,0.5,1.5,1.2,2.1,1.9l0.5,0.5l2.7-4.5l-0.3-0.3c-1.3-1.2-2.7-2.2-4.2-3s-3.2-1.4-4.9-1.8
	c-1.8-0.4-3.7-0.6-5.7-0.6c-3.2,0-6.1,0.5-8.6,1.5s-4.5,2.6-5.9,4.6s-2.2,4.5-2.2,7.4c0,2.5,0.6,4.6,1.7,6.1
	c1.1,1.5,2.9,2.8,5.1,3.7c2.2,0.9,4.9,1.7,8.1,2.5c3,0.7,5.5,1.4,7.5,2.1s3.4,1.6,4.4,2.6c0.9,1,1.4,2.4,1.4,4.2
	c0,2.4-0.9,4.2-2.8,5.5c-1.9,1.3-4.7,1.9-8.2,1.9c-1.7,0-3.3-0.2-4.9-0.5c-1.6-0.3-3-0.8-4.4-1.3c-1.4-0.6-2.6-1.2-3.7-2
	c-1.1-0.7-2-1.5-2.8-2.3l-0.4-0.5l-2.8,4.6l0.3,0.3c1.7,1.5,3.5,2.8,5.5,3.8c1.9,1,4,1.7,6.2,2.2s4.5,0.7,6.9,0.7s4.7-0.3,6.7-0.8
	c2.1-0.5,3.9-1.3,5.4-2.3c1.5-1.1,2.7-2.4,3.5-4s1.3-3.5,1.3-5.7c0-2.8-0.7-5.1-2-6.8C169.4,94.6,167.5,93.3,165.1,92.3z"/>
<path class="st1" d="M205.3,85c-0.9-1.4-2-2.4-3.5-3.1c-1.4-0.7-3.1-1.1-5.1-1.1c-2.8,0-5.4,0.8-7.8,2.3c-1.9,1.2-3.5,2.7-4.8,4.5
	V67.8h-5.4v47.7h5.4V94.8c0.5-1.7,1.3-3.3,2.5-4.6c1.2-1.4,2.5-2.5,4.1-3.2c1.5-0.8,3.1-1.2,4.6-1.2c2.3,0,4,0.9,5.3,2.6
	c1.3,1.8,1.9,4.5,1.9,8.1v19h5.4V95.6c0-2.2-0.2-4.2-0.6-5.9C206.8,87.9,206.1,86.4,205.3,85z"/>
<path class="st1" d="M243,86.1c-1.5-1.6-3.4-2.9-5.4-3.9c-2.1-0.9-4.3-1.4-6.8-1.4s-4.7,0.5-6.8,1.4s-3.9,2.2-5.4,3.9
	c-1.5,1.6-2.7,3.5-3.6,5.6c-0.8,2.1-1.3,4.4-1.3,6.8c0,2.3,0.4,4.6,1.3,6.7c0.8,2.1,2,4,3.5,5.6s3.3,2.9,5.4,3.9
	c2.1,0.9,4.4,1.4,6.9,1.4c2.4,0,4.7-0.5,6.8-1.4s3.9-2.2,5.4-3.9c1.5-1.6,2.7-3.5,3.5-5.6s1.3-4.4,1.3-6.7c0-2.4-0.4-4.7-1.3-6.8
	C245.7,89.6,244.5,87.7,243,86.1z M240.8,105c-1.1,2-2.5,3.5-4.2,4.7c-1.7,1.1-3.7,1.7-5.8,1.7s-4.1-0.6-5.8-1.7
	c-1.8-1.1-3.2-2.7-4.2-4.6s-1.6-4.1-1.6-6.5s0.5-4.6,1.6-6.5c1-1.9,2.5-3.5,4.2-4.7s3.7-1.8,5.8-1.8s4.1,0.6,5.8,1.7
	c1.8,1.1,3.2,2.7,4.2,4.6c1.1,2,1.6,4.1,1.6,6.4C242.4,100.8,241.9,103,240.8,105z"/>
<path class="st1" d="M282.6,86.3c-1.4-1.7-3.2-3-5.1-4c-2-1-4.2-1.5-6.6-1.5c-2.6,0-5.1,0.7-7.4,2c-1.8,1-3.3,2.4-4.6,3.9v-5.4H254
	v47.8h5.4v-19.4c1.2,1.6,2.7,3,4.4,4.1c2.3,1.5,4.9,2.2,7.7,2.2c3.1,0,5.9-0.8,8.2-2.4c2.3-1.6,4.2-3.8,5.4-6.5
	c1.3-2.7,1.9-5.6,1.9-8.8c0-2.3-0.4-4.5-1.2-6.6C285.2,89.8,284.1,87.9,282.6,86.3z M281,103.3c-0.5,1.5-1.3,2.9-2.3,4.1
	s-2.2,2.2-3.6,2.9c-1.4,0.7-3,1.1-4.7,1.1c-1.5,0-3-0.4-4.5-1.1s-2.7-1.7-3.9-2.9c-1.1-1.2-2-2.5-2.6-4v-10c0.2-1,0.6-2,1.3-2.9
	c0.7-0.9,1.6-1.8,2.6-2.5c1-0.8,2.2-1.3,3.3-1.7c2.9-1,5.6-0.7,7.9,0.4c1.4,0.7,2.7,1.6,3.8,2.8c1.1,1.2,2,2.6,2.6,4.1
	s0.9,3.2,0.9,4.9C281.8,100.1,281.5,101.7,281,103.3z"/>
</svg>
