<?xml version="1.0" encoding="utf-8"?>
<!-- Generator: Adobe Illustrator 26.0.3, SVG Export Plug-In . SVG Version: 6.00 Build 0)  -->
<svg version="1.1" id="Capa_1" xmlns="http://www.w3.org/2000/svg" xmlns:xlink="http://www.w3.org/1999/xlink" x="0px" y="0px"
	 viewBox="0 0 24 24" style="enable-background:new 0 0 24 24;" xml:space="preserve">
<style type="text/css">
	.st0{fill:#FFFFFF;}
</style>
<g transform="scale(4.00216 4.0011)">
	<path class="st0" d="M4.6,3.2c0-0.7,0.6-1.1,0.6-1.1C4.8,1.6,4.3,1.5,4.1,1.5C3.7,1.5,3.3,1.8,3,1.8c-0.2,0-0.6-0.3-1-0.3
		c-0.5,0-0.9,0.3-1.2,0.7C0.4,3.1,0.8,4.4,1.3,5.1c0.2,0.3,0.5,0.7,0.9,0.7c0.4,0,0.5-0.2,0.9-0.2c0.4,0,0.6,0.2,0.9,0.2
		c0.4,0,0.6-0.4,0.9-0.7c0.3-0.4,0.4-0.8,0.4-0.8C5.3,4.3,4.6,4.1,4.6,3.2L4.6,3.2z M3.8,1C4,0.8,4.2,0.5,4.1,0.1
		c-0.3,0-0.6,0.2-0.8,0.4C3.1,0.8,2.9,1.1,3,1.5C3.3,1.5,3.6,1.3,3.8,1L3.8,1z"/>
</g>
</svg>
