<svg width="24" height="24" viewBox="0 0 24 24" fill="none" xmlns="http://www.w3.org/2000/svg">
<path fill-rule="evenodd" clip-rule="evenodd" d="M11.074 4.43756C11.9947 3.51691 13.2433 2.99969 14.5453 2.99969H16.9999C17.4518 2.99969 17.8181 3.36601 17.8181 3.81789V7.09067C17.8181 7.54255 17.4518 7.90887 16.9999 7.90887L14.5453 7.90887V9.54526H16.9999C17.2519 9.54526 17.4898 9.66133 17.6448 9.85992C17.7999 10.0585 17.8548 10.3175 17.7937 10.5619L16.9755 13.8347C16.8844 14.1989 16.5572 14.4544 16.1817 14.4544H14.5453V20.1818C14.5453 20.6337 14.179 21 13.7271 21H10.4543C10.0025 21 9.63615 20.6337 9.63615 20.1818V14.4544H7.99976C7.54788 14.4544 7.18156 14.0881 7.18156 13.6362V10.3635C7.18156 9.91157 7.54788 9.54526 7.99976 9.54526H9.63615V7.90887C9.63615 6.60687 10.1534 5.35821 11.074 4.43756ZM14.5453 4.63609C13.6773 4.63609 12.8449 4.9809 12.2311 5.59466C11.6173 6.20843 11.2725 7.04087 11.2725 7.90887V10.3635C11.2725 10.8153 10.9062 11.1816 10.4543 11.1816H8.81795V12.818H10.4543C10.9062 12.818 11.2725 13.1844 11.2725 13.6362V19.3636H12.9089V13.6362C12.9089 13.1844 13.2752 12.818 13.7271 12.818H15.5429L15.952 11.1816H13.7271C13.2752 11.1816 12.9089 10.8153 12.9089 10.3635V7.90887C12.9089 7.47487 13.0813 7.05865 13.3882 6.75176C13.6951 6.44488 14.1113 6.27248 14.5453 6.27248H16.1817V4.63609H14.5453Z" fill="white"/>
</svg>
