<?xml version="1.0" encoding="utf-8"?>
<!-- Generator: Adobe Illustrator 26.0.3, SVG Export Plug-In . SVG Version: 6.00 Build 0)  -->
<svg version="1.1" id="Capa_1" xmlns="http://www.w3.org/2000/svg" xmlns:xlink="http://www.w3.org/1999/xlink" x="0px" y="0px"
	 viewBox="0 0 24 24" style="enable-background:new 0 0 24 24;" xml:space="preserve">
<style type="text/css">
	.st0{fill:#FFFFFF;}
</style>
<g>
	<g>
		<path class="st0" d="M1.6,12c0-3.3,0-6.6,0.1-9.8c0-0.4,0.1-0.8,0.4-1.1C2.1,1,2.2,1,2.4,1.1c2.2,2.3,4.4,4.5,6.6,6.8
			c1.4,1.5,2.8,2.9,4.3,4.4c0.1,0.1,0.1,0.2,0,0.4c-3.5,3.5-7.1,6.9-10.6,10.4c-0.2,0.2-0.4,0.2-0.6,0c-0.4-0.3-0.5-0.7-0.5-1.1
			c0-1.9,0-3.9,0-5.8C1.6,14.8,1.6,13.4,1.6,12C1.6,12,1.6,12,1.6,12z"/>
		<path class="st0" d="M2.9,0.8c0.3,0,0.5,0.1,0.6,0.2C8,3.5,12.5,6,17,8.6c0.2,0.1,0.2,0.2,0,0.3c-1,1-2,2-3,3
			c-0.1,0.1-0.2,0.2-0.3,0C10.2,8.2,6.6,4.6,3,0.9C3,0.9,3,0.8,2.9,0.8z"/>
		<path class="st0" d="M3.8,23c3.3-3.3,6.6-6.5,9.8-9.8c0.2-0.2,0.3-0.2,0.5,0c0.8,0.9,1.7,1.7,2.5,2.6c0.1,0.1,0.2,0.2,0,0.3
			c-4.2,2.3-8.4,4.5-12.6,6.8C3.9,22.9,3.8,23,3.8,23z"/>
		<path class="st0" d="M22.5,12.3c0,0.4-0.2,0.6-0.5,0.8c-0.2,0.1-0.4,0.3-0.6,0.4c-1.3,0.7-2.5,1.4-3.8,2.1
			c-0.2,0.1-0.3,0.1-0.4-0.1c-0.9-0.9-1.8-1.9-2.7-2.8c-0.1-0.1-0.1-0.2,0-0.3c1.1-1,2.1-2.1,3.2-3.1c0.1-0.1,0.2-0.1,0.4,0
			c1.2,0.7,2.5,1.4,3.7,2.1C22.2,11.5,22.5,11.8,22.5,12.3z"/>
	</g>
</g>
</svg>
