<svg width="24" height="24" viewBox="0 0 24 24" fill="none" xmlns="http://www.w3.org/2000/svg">
<path fill-rule="evenodd" clip-rule="evenodd" d="M7.50001 3.89998C5.51178 3.89998 3.90001 5.51175 3.90001 7.49998V16.5C3.90001 18.4882 5.51178 20.1 7.50001 20.1H16.5C18.4882 20.1 20.1 18.4882 20.1 16.5V7.49998C20.1 5.51175 18.4882 3.89998 16.5 3.89998H7.50001ZM2.10001 7.49998C2.10001 4.51764 4.51767 2.09998 7.50001 2.09998H16.5C19.4823 2.09998 21.9 4.51764 21.9 7.49998V16.5C21.9 19.4823 19.4823 21.9 16.5 21.9H7.50001C4.51767 21.9 2.10001 19.4823 2.10001 16.5V7.49998Z" fill="white"/>
<path fill-rule="evenodd" clip-rule="evenodd" d="M12.4349 9.29033C11.8732 9.20703 11.2994 9.30298 10.7954 9.56454C10.2913 9.8261 9.88249 10.24 9.62717 10.7472C9.37184 11.2545 9.28297 11.8294 9.37319 12.3901C9.46341 12.9508 9.72814 13.4687 10.1297 13.8703C10.5313 14.2719 11.0493 14.5366 11.61 14.6268C12.1706 14.7171 12.7455 14.6282 13.2528 14.3729C13.7601 14.1175 14.1739 13.7088 14.4355 13.2047C14.697 12.7006 14.793 12.1268 14.7097 11.5651C14.6247 10.9921 14.3577 10.4616 13.9481 10.0519C13.5385 9.64232 13.008 9.3753 12.4349 9.29033ZM9.96633 7.96682C10.8065 7.53088 11.7627 7.37096 12.699 7.5098C13.654 7.65142 14.5382 8.09645 15.2209 8.77914C15.9036 9.46184 16.3486 10.346 16.4902 11.301C16.6291 12.2373 16.4691 13.1935 16.0332 14.0337C15.5973 14.8738 14.9075 15.5551 14.0621 15.9807C13.2166 16.4062 12.2585 16.5543 11.324 16.404C10.3895 16.2536 9.52621 15.8124 8.85692 15.1431C8.18763 14.4738 7.74642 13.6105 7.59605 12.676C7.44568 11.7415 7.5938 10.7834 8.01934 9.93797C8.44489 9.09251 9.12618 8.40276 9.96633 7.96682Z" fill="white"/>
<path fill-rule="evenodd" clip-rule="evenodd" d="M16.05 7.05002C16.05 6.55297 16.4529 6.15002 16.95 6.15002H16.959C17.4561 6.15002 17.859 6.55297 17.859 7.05002C17.859 7.54708 17.4561 7.95002 16.959 7.95002H16.95C16.4529 7.95002 16.05 7.54708 16.05 7.05002Z" fill="white"/>
</svg>
