<svg width="24" height="24" viewBox="0 0 24 24" fill="none" xmlns="http://www.w3.org/2000/svg">
<path fill-rule="evenodd" clip-rule="evenodd" d="M15.1579 9.42128C14.0831 9.42128 13.0523 9.84825 12.2923 10.6083C11.5322 11.3683 11.1053 12.3991 11.1053 13.4739V18.316H12.8947V13.4739C12.8947 12.8737 13.1332 12.298 13.5576 11.8736C13.982 11.4492 14.5577 11.2108 15.1579 11.2108C15.7581 11.2108 16.3338 11.4492 16.7582 11.8736C17.1826 12.298 17.4211 12.8737 17.4211 13.4739V18.316H19.2105V13.4739C19.2105 12.3991 18.7836 11.3683 18.0235 10.6083C17.2635 9.84825 16.2327 9.42128 15.1579 9.42128ZM15.1579 8.05286C13.7201 8.05286 12.3413 8.624 11.3246 9.64065C10.308 10.6573 9.73685 12.0362 9.73685 13.4739V19.0002C9.73685 19.3781 10.0432 19.6844 10.4211 19.6844H13.579C13.9568 19.6844 14.2632 19.3781 14.2632 19.0002V13.4739C14.2632 13.2366 14.3574 13.009 14.5252 12.8412C14.693 12.6734 14.9206 12.5792 15.1579 12.5792C15.3952 12.5792 15.6228 12.6734 15.7906 12.8412C15.9584 13.009 16.0526 13.2366 16.0526 13.4739V19.0002C16.0526 19.3781 16.359 19.6844 16.7368 19.6844H19.8947C20.2726 19.6844 20.579 19.3781 20.579 19.0002V13.4739C20.579 12.0362 20.0078 10.6573 18.9912 9.64065C17.9745 8.624 16.5957 8.05286 15.1579 8.05286Z" fill="white"/>
<path fill-rule="evenodd" clip-rule="evenodd" d="M3.42112 9.52637C3.42112 9.14849 3.72745 8.84216 4.10533 8.84216H7.26322C7.6411 8.84216 7.94743 9.14849 7.94743 9.52637V19.0001C7.94743 19.3779 7.6411 19.6843 7.26322 19.6843H4.10533C3.72745 19.6843 3.42112 19.3779 3.42112 19.0001V9.52637ZM4.78954 10.2106V18.3158H6.57901V10.2106H4.78954Z" fill="white"/>
<path fill-rule="evenodd" clip-rule="evenodd" d="M5.68456 4.68422C5.19041 4.68422 4.78982 5.0848 4.78982 5.57895C4.78982 6.0731 5.19041 6.47369 5.68456 6.47369C6.17871 6.47369 6.57929 6.0731 6.57929 5.57895C6.57929 5.0848 6.17871 4.68422 5.68456 4.68422ZM3.4214 5.57895C3.4214 4.32905 4.43465 3.3158 5.68456 3.3158C6.93446 3.3158 7.94771 4.32905 7.94771 5.57895C7.94771 6.82886 6.93446 7.84211 5.68456 7.84211C4.43465 7.84211 3.4214 6.82886 3.4214 5.57895Z" fill="white"/>
</svg>
