<?xml version="1.0" encoding="utf-8"?>
<!-- Generator: Adobe Illustrator 27.6.1, SVG Export Plug-In . SVG Version: 6.00 Build 0)  -->
<svg version="1.1" id="Capa_1" xmlns="http://www.w3.org/2000/svg" xmlns:xlink="http://www.w3.org/1999/xlink" x="0px" y="0px"
	 viewBox="0 0 24 24" style="enable-background:new 0 0 24 24;" xml:space="preserve">
<style type="text/css">
	.st0{fill:none;}
	.st1{fill-rule:evenodd;clip-rule:evenodd;fill:#FFFFFF;}
</style>
<rect x="-36" y="11.4" class="st0" width="12" height="12"/>
<g>
	<path class="st1" d="M15.9,13.6l-1.2,0.2c1-1.2,1.7-2.8,1.7-4.6c0-3.9-3.2-7.1-7.1-7.1c-3.9,0-7.1,3.2-7.1,7.1s3.2,7.1,7.1,7.1
		c1.7,0,3.3-0.6,4.6-1.7l-0.2,1.2l4.1,4.1l2.3-2.3L15.9,13.6z M9.3,14.7c-3,0-5.5-2.4-5.5-5.5s2.4-5.5,5.5-5.5c3,0,5.5,2.4,5.5,5.5
		S12.3,14.7,9.3,14.7z"/>
	<path class="st1" d="M9.1,4.8C8,4.8,6.8,5.3,6.1,6c-0.2,0.2-0.2,0.6,0,0.8c0.2,0.2,0.6,0.2,0.8,0c0.5-0.5,1.3-0.8,2.3-0.8v0
		c0.9,0,1.9,0.2,2.5,0.8c0.2,0.2,0.6,0.2,0.8,0c0.2-0.2,0.2-0.6,0-0.8C11.5,5.1,10.2,4.8,9.1,4.8z"/>
	<path class="st1" d="M21.5,19.3l-0.7-0.7l-2.3,2.3l0.7,0.7c0.4,0.4,1.1,0.4,1.5,0l0.8-0.8C21.9,20.3,21.9,19.7,21.5,19.3z"/>
</g>
</svg>
