<svg width="24" height="24" viewBox="0 0 24 24" fill="none" xmlns="http://www.w3.org/2000/svg">
<path d="M18.364 5.63603C16.6641 3.93617 14.4039 3 12 3C9.59605 3 7.33589 3.93617 5.63603 5.63603C3.93617 7.33589 3 9.59592 3 12C3 14.4039 3.93617 16.6641 5.63603 18.364C7.33603 20.0638 9.59605 21 12 21C14.4039 21 16.6641 20.0638 18.364 18.364C20.0638 16.6641 21 14.4039 21 12C21 9.59592 20.0638 7.33589 18.364 5.63603ZM12 19.9453C7.61893 19.9453 4.05469 16.3811 4.05469 12C4.05469 7.61893 7.61893 4.05469 12 4.05469C16.3811 4.05469 19.9453 7.61893 19.9453 12C19.9453 16.3811 16.3811 19.9453 12 19.9453Z" fill="white" stroke="white" stroke-width="0.375"/>
<path d="M18.0845 10.0424C15.6407 8.9454 13.0328 8.38922 10.3332 8.38922C8.99097 8.38922 7.65064 8.5304 6.34931 8.8089C6.06449 8.86974 5.88307 9.15002 5.94405 9.43484C6.00488 9.71967 6.28517 9.90135 6.56999 9.84024C7.79895 9.57726 9.06499 9.44391 10.3332 9.44391C12.883 9.44391 15.3455 9.96906 17.6525 11.0047C17.7226 11.0361 17.796 11.0511 17.8682 11.0511C18.0695 11.0511 18.2618 10.935 18.3495 10.7395C18.4689 10.4737 18.3501 10.1617 18.0845 10.0424Z" fill="white" stroke="white" stroke-width="0.375"/>
<path d="M15.8952 15.0105C14.1426 14.2184 12.2714 13.8167 10.3333 13.8167C9.30193 13.8167 8.27402 13.9334 7.27811 14.1635C6.99439 14.229 6.81751 14.5121 6.88302 14.7959C6.94852 15.0797 7.2317 15.2566 7.51556 15.1911C8.43374 14.9789 9.38172 14.8714 10.3333 14.8714C12.1206 14.8714 13.8457 15.2415 15.4609 15.9715C15.5313 16.0035 15.6051 16.0185 15.6777 16.0185C15.8785 16.0185 16.0705 15.9032 16.1585 15.7083C16.2785 15.443 16.1607 15.1305 15.8952 15.0105Z" fill="white" stroke="white" stroke-width="0.375"/>
<path d="M17.0073 12.4871C14.9037 11.5401 12.6583 11.06 10.3333 11.06C9.14402 11.06 7.95736 11.1889 6.80627 11.4433C6.52186 11.5062 6.34223 11.7877 6.40513 12.072C6.46803 12.3564 6.74955 12.5363 7.03382 12.4731C8.11035 12.2353 9.22038 12.1147 10.3333 12.1147C12.5079 12.1147 14.6078 12.5635 16.5743 13.4488C16.6447 13.4804 16.7181 13.4954 16.7905 13.4954C16.9917 13.4954 17.1838 13.3798 17.2717 13.1843C17.3913 12.9189 17.2729 12.6067 17.0073 12.4871Z" fill="white" stroke="white" stroke-width="0.375"/>
</svg>
