<svg width="24" height="24" viewBox="0 0 24 24" fill="none" xmlns="http://www.w3.org/2000/svg">
<path fill-rule="evenodd" clip-rule="evenodd" d="M12.1543 4.77301C12.1543 4.77301 12.1544 4.77301 12.1544 5.51428L12.1544 6.25555L12.0935 6.25563L11.9174 6.25626C11.7647 6.25698 11.5447 6.25841 11.2763 6.26128C10.7391 6.26703 10.0093 6.27852 9.23738 6.30145C8.46432 6.32443 7.655 6.35872 6.95698 6.40963C6.2428 6.46172 5.70638 6.5275 5.43574 6.59889C5.18475 6.67087 4.95697 6.80738 4.77512 6.99484C4.59727 7.1782 4.46948 7.40399 4.4038 7.65058C4.16196 9.00095 4.04368 10.3706 4.05046 11.7424L4.0505 11.7508C4.04185 13.1287 4.15931 14.5045 4.4015 15.8609C4.474 16.0955 4.60324 16.3088 4.77799 16.4817C4.96011 16.6619 5.18552 16.7923 5.43255 16.8603C5.70214 16.932 6.23998 16.9981 6.95698 17.0504C7.655 17.1013 8.46432 17.1356 9.23738 17.1586C10.0093 17.1815 10.7391 17.193 11.2763 17.1988C11.5447 17.2016 11.7647 17.2031 11.9174 17.2038L12.0935 17.2044L12.1536 17.2045L12.1544 17.9458C12.1544 18.687 12.1543 18.687 12.1543 18.687L12.0903 18.6869L11.9105 18.6863C11.7552 18.6856 11.5322 18.6841 11.2604 18.6812C10.7171 18.6754 9.97742 18.6638 9.19335 18.6405C8.41046 18.6172 7.57739 18.5821 6.84913 18.529C6.1416 18.4774 5.47014 18.405 5.04754 18.292L5.04342 18.2909C4.54962 18.1557 4.099 17.8956 3.73512 17.5354C3.37124 17.1753 3.10639 16.7274 2.96617 16.235C2.95947 16.2115 2.95394 16.1877 2.9496 16.1636C2.68664 14.7058 2.55888 13.2269 2.56792 11.7456C2.56091 10.2754 2.68867 8.80769 2.94959 7.36083C2.95252 7.34457 2.956 7.32842 2.96001 7.3124C3.0872 6.80423 3.34624 6.33863 3.71097 5.96261C4.0757 5.5866 4.5332 5.3135 5.03726 5.1709L5.04752 5.16799C5.47012 5.05497 6.1416 4.98263 6.84913 4.93102C7.57739 4.8779 8.41046 4.84284 9.19335 4.81957C9.97742 4.79627 10.7171 4.78464 11.2604 4.77883C11.5322 4.77592 11.7552 4.77447 11.9105 4.77374L12.0903 4.7731L12.1543 4.77301ZM18.873 16.8611C18.6024 16.9325 18.066 16.9983 17.3518 17.0504C16.6537 17.1013 15.8444 17.1356 15.0714 17.1586C14.2995 17.1815 13.5697 17.193 13.0325 17.1988C12.764 17.2016 12.544 17.2031 12.3913 17.2038L12.2152 17.2044L12.1552 17.2045L12.1544 17.9458C12.1544 18.687 12.1543 18.687 12.1543 18.687L12.2185 18.6869L12.3983 18.6863C12.5535 18.6856 12.7765 18.6841 13.0483 18.6812C13.5916 18.6754 14.3313 18.6638 15.1154 18.6405C15.8983 18.6172 16.7314 18.5821 17.4596 18.529C18.1671 18.4774 18.8386 18.405 19.2612 18.292L19.2715 18.2891C19.7755 18.1465 20.233 17.8734 20.5978 17.4974C20.9625 17.1214 21.2215 16.6558 21.3487 16.1476C21.3528 16.1316 21.3562 16.1155 21.3592 16.0992C21.6181 14.6631 21.7458 13.2064 21.7408 11.7471C21.7499 10.2657 21.6221 8.78657 21.3592 7.32863L20.6297 7.46022L21.3487 7.28023C21.2215 6.77206 20.9625 6.30646 20.5978 5.93045C20.233 5.55444 19.7755 5.28134 19.2715 5.13873C19.2629 5.1363 19.2542 5.13402 19.2455 5.13189C18.8288 5.03013 18.1627 4.96426 17.4549 4.91713C16.728 4.86871 15.8959 4.83673 15.1135 4.8155C14.3299 4.79424 13.5907 4.78363 13.0476 4.77832C12.776 4.77567 12.5531 4.77434 12.398 4.77368L12.2183 4.77309L12.1543 4.77301C12.1543 4.77301 12.1544 4.77301 12.1544 5.51428L12.1544 6.25555L12.2153 6.25563L12.3916 6.2562C12.5444 6.25685 12.7646 6.25816 13.0332 6.26079C13.5706 6.26604 14.3009 6.27653 15.0733 6.29749C15.8468 6.31848 16.6571 6.34981 17.3564 6.39639C18.0636 6.44348 18.6018 6.50309 18.8806 6.56894C19.1286 6.64148 19.3536 6.77711 19.5336 6.96268C19.7115 7.14603 19.8393 7.37183 19.9049 7.61843C20.1487 8.97904 20.267 10.3592 20.2583 11.7414L20.2583 11.7488C20.2632 13.1102 20.1449 14.4693 19.9049 15.8095C19.8393 16.0561 19.7115 16.2818 19.5336 16.4652C19.3518 16.6527 19.124 16.7892 18.873 16.8611Z" fill="white"/>
<path fill-rule="evenodd" clip-rule="evenodd" d="M9.97247 8.47583C10.2006 8.3431 10.4822 8.34172 10.7116 8.47222L15.3353 11.1016C15.567 11.2334 15.7101 11.4794 15.7101 11.746C15.7101 12.0126 15.567 12.2586 15.3353 12.3904L10.7116 15.0198C10.4822 15.1503 10.2006 15.1489 9.97247 15.0162C9.7443 14.8834 9.60393 14.6394 9.60393 14.3754V9.11657C9.60393 8.85261 9.7443 8.60855 9.97247 8.47583ZM11.0865 10.3909V13.1011L13.4693 11.746L11.0865 10.3909Z" fill="white"/>
</svg>
